<?xml version="1.0" standalone="no"?>
<!DOCTYPE svg PUBLIC "-//W3C//DTD SVG 20010904//EN"
 "http://www.w3.org/TR/2001/REC-SVG-20010904/DTD/svg10.dtd">
<svg version="1.0" xmlns="http://www.w3.org/2000/svg"
 width="1707.000000pt" height="1707.000000pt" viewBox="0 0 1707.000000 1707.000000"
 preserveAspectRatio="xMidYMid meet">
<metadata>
Created by potrace 1.11, written by Peter Selinger 2001-2013
</metadata>
<g transform="translate(0.000000,1707.000000) scale(0.100000,-0.100000)"
fill="#000000" stroke="none">
<path d="M4772 17059 c-158 -29 -342 -189 -424 -369 -15 -33 -40 -118 -53
-185 -13 -66 -13 -254 1 -340 15 -99 14 -93 44 -220 17 -69 21 -111 18 -180
-6 -112 -30 -168 -108 -245 -69 -69 -161 -123 -405 -240 -319 -153 -374 -186
-459 -274 -118 -125 -162 -244 -153 -421 7 -142 38 -250 121 -420 146 -298
351 -549 654 -802 288 -240 688 -474 1547 -907 556 -280 679 -358 880 -560
142 -142 214 -256 249 -390 18 -67 18 -281 0 -356 -20 -86 -64 -190 -80 -190
-37 0 -288 139 -449 249 -76 52 -234 169 -245 181 -3 3 -30 25 -60 50 -83 68
-164 138 -250 216 -14 13 -34 31 -46 41 -12 10 -61 54 -109 98 -48 44 -93 85
-99 90 -6 6 -52 46 -101 90 -50 44 -121 107 -160 140 -38 33 -76 66 -84 73
-39 37 -267 216 -346 272 -151 106 -333 216 -480 290 -222 111 -400 152 -650
153 -379 0 -717 -135 -948 -377 -218 -229 -362 -625 -295 -813 11 -32 22 -65
23 -73 57 -246 53 -396 -15 -547 -50 -109 -141 -220 -245 -298 -22 -17 -42
-32 -45 -35 -20 -20 -292 -190 -304 -190 -4 0 -135 -75 -176 -100 -8 -5 -33
-19 -55 -31 -22 -11 -59 -34 -83 -50 -24 -16 -45 -29 -48 -29 -18 0 -204 -153
-284 -232 -230 -231 -308 -339 -374 -523 -70 -194 -87 -442 -51 -725 19 -152
75 -324 160 -496 66 -133 134 -220 224 -285 185 -134 386 -371 746 -882 351
-499 489 -658 721 -834 152 -115 176 -124 354 -127 204 -4 449 26 595 71 204
64 273 91 465 188 253 126 425 233 718 444 74 53 143 103 155 111 12 8 78 57
147 108 69 51 136 101 149 110 13 9 51 38 85 63 33 25 86 63 116 86 55 40 271
194 300 213 8 5 47 31 85 58 121 82 306 189 425 245 163 76 167 78 355 147
400 147 588 232 666 300 61 53 69 83 32 122 -61 65 -222 129 -324 129 -92 1
-349 -61 -464 -111 -11 -5 -84 -36 -163 -70 -151 -64 -239 -103 -372 -163
-154 -70 -347 -139 -464 -167 -338 -79 -640 -18 -821 164 -132 133 -184 277
-150 410 24 92 68 149 252 326 382 370 434 432 487 580 25 69 26 78 21 224
-14 354 -5 444 62 606 67 163 189 279 312 298 50 8 234 7 305 -1 77 -9 213
-56 361 -126 111 -52 177 -86 360 -186 77 -42 361 -213 467 -281 l67 -44 62
33 c92 48 189 146 240 242 40 77 42 83 44 180 2 109 -13 219 -44 318 -19 62
-73 202 -90 234 -5 10 -37 74 -72 143 -34 69 -85 166 -112 215 -28 50 -64 115
-80 145 -17 30 -41 72 -54 92 -13 21 -23 40 -23 42 0 3 -15 31 -34 63 -110
189 -216 402 -279 561 -25 62 -68 145 -95 185 -129 190 -163 302 -165 539 -1
122 10 193 43 287 114 323 382 503 639 430 351 -101 631 -537 742 -1159 10
-58 21 -116 23 -130 3 -14 12 -74 21 -135 9 -60 25 -166 36 -235 29 -183 26
-163 55 -330 52 -301 158 -579 297 -778 l65 -93 27 87 c23 76 78 280 91 338 3
12 6 26 8 31 2 6 6 28 11 50 4 22 10 49 12 60 4 19 28 144 37 195 6 32 26 175
40 280 6 47 16 181 21 290 5 102 5 688 1 758 -8 120 -42 405 -62 512 -2 14 -7
41 -10 60 -13 84 -65 324 -108 495 -25 102 -104 356 -126 410 -5 11 -20 53
-34 93 -62 177 -185 445 -326 712 -34 63 -93 176 -132 250 -91 172 -166 297
-229 380 -78 102 -270 285 -365 347 -11 7 -36 24 -57 38 -145 96 -417 208
-611 250 -87 19 -219 45 -256 50 -25 3 -61 7 -80 10 -141 19 -190 23 -330 31
-177 9 -228 12 -290 13 -52 1 -56 3 -80 39 -67 101 -226 239 -321 280 -96 41
-240 58 -337 41z"/>
<path d="M8963 16889 c-48 -9 -87 -28 -163 -79 -47 -32 -185 -137 -242 -185
-31 -26 -92 -61 -118 -69 -14 -4 -70 -9 -125 -12 -142 -6 -158 -10 -198 -49
-56 -54 -67 -107 -82 -380 -10 -188 -19 -233 -58 -309 -45 -87 -30 -190 40
-260 44 -43 92 -58 181 -55 82 3 160 23 317 84 152 59 186 71 262 88 70 16
168 12 216 -8 126 -53 431 -368 518 -535 19 -37 24 -62 26 -145 3 -152 -24
-194 -131 -200 -67 -4 -108 14 -196 90 -147 126 -199 165 -231 178 -131 53
-308 -81 -309 -232 0 -39 5 -49 43 -86 45 -43 113 -71 196 -81 24 -3 139 -7
255 -8 116 -2 229 -7 251 -11 113 -21 252 -143 320 -282 33 -68 37 -85 37
-150 -2 -118 -27 -175 -102 -226 -36 -25 -50 -22 -105 28 -28 25 -63 52 -80
60 -16 9 -37 20 -45 25 -51 31 -188 78 -255 87 -129 17 -212 -3 -276 -67 -108
-108 -82 -229 61 -289 58 -25 88 -27 388 -32 162 -3 271 -17 320 -42 36 -20
89 -87 99 -126 12 -48 4 -344 -12 -442 -2 -13 -6 -45 -9 -71 -3 -27 -9 -69
-12 -95 -36 -290 -168 -779 -285 -1058 -7 -16 -13 -32 -14 -35 -2 -6 -9 -23
-43 -105 -117 -286 -425 -893 -568 -1118 -27 -42 -117 -173 -200 -290 -259
-365 -318 -468 -386 -671 -47 -140 -51 -201 -19 -287 62 -165 207 -289 406
-346 64 -18 245 -25 310 -11 102 22 256 151 455 384 179 207 397 562 507 824
8 19 23 53 33 75 155 349 287 878 335 1340 31 303 35 640 9 865 -12 106 -14
126 -29 197 -35 170 -23 300 40 428 51 106 124 173 240 222 60 25 106 32 285
39 74 2 146 7 158 9 88 15 144 89 138 179 -9 125 -112 219 -241 219 -106 1
-127 -10 -230 -121 -128 -137 -232 -202 -324 -202 -130 0 -233 124 -233 281
-1 172 145 293 547 454 230 93 271 123 283 207 10 76 -43 135 -157 173 -89 29
-187 24 -278 -14 -69 -30 -106 -73 -133 -154 -42 -128 -124 -212 -217 -221
-140 -14 -314 201 -301 373 12 175 192 352 446 441 194 68 275 177 216 291
-17 33 -84 92 -133 115 -49 25 -193 26 -236 2 -66 -36 -111 -98 -120 -165 -16
-112 -64 -191 -140 -227 -45 -22 -134 -22 -173 -2 -84 43 -232 304 -277 486
-26 103 -26 257 0 325 50 133 128 206 274 256 67 23 91 23 161 0 54 -18 174
-22 227 -8 45 12 91 39 123 72 28 29 32 40 32 81 -1 40 -9 60 -48 117 -26 38
-68 91 -93 117 -67 70 -105 79 -381 84 -124 3 -238 8 -254 11 -50 10 -99 42
-167 107 -94 90 -123 115 -156 132 -36 18 -114 25 -170 15z"/>
<path d="M13290 15222 c-77 -10 -338 -111 -504 -194 -183 -91 -431 -255 -580
-383 -245 -211 -484 -467 -649 -695 -69 -96 -131 -188 -182 -270 -32 -52 -65
-102 -71 -110 -16 -19 -236 -453 -291 -575 -110 -240 -237 -591 -323 -895 -23
-80 -43 -153 -45 -163 -2 -11 -20 -83 -39 -160 -19 -78 -37 -154 -40 -169 -28
-138 -66 -334 -72 -373 -3 -22 -7 -42 -9 -45 -2 -3 -7 -33 -10 -65 -4 -33 -9
-62 -10 -65 -9 -14 -19 -145 -20 -235 0 -115 22 -199 63 -240 37 -37 65 -40
117 -15 49 24 175 142 241 225 21 27 44 55 49 61 6 6 60 79 120 164 287 398
400 548 481 636 27 29 72 59 361 245 65 42 208 136 318 209 178 117 243 157
385 236 71 40 224 101 300 120 103 26 283 26 360 -1 187 -63 297 -154 324
-268 20 -83 26 -313 11 -407 -11 -70 -53 -189 -91 -257 -74 -133 -229 -310
-379 -433 -65 -53 -320 -230 -332 -230 -3 0 -17 -8 -31 -19 -15 -10 -47 -29
-72 -43 -261 -146 -362 -209 -475 -294 -92 -69 -203 -132 -410 -233 -653 -319
-678 -334 -828 -484 -84 -83 -116 -149 -121 -245 -2 -37 1 -81 6 -99 l9 -33
67 26 c333 129 361 139 657 229 176 54 458 122 620 150 17 2 39 7 50 9 11 2
45 7 75 11 30 4 62 8 70 10 158 27 630 46 765 31 128 -14 154 -18 205 -26 30
-5 78 -12 105 -15 28 -3 61 -8 75 -10 14 -3 45 -8 70 -11 25 -3 56 -7 70 -9
25 -4 238 -31 318 -40 23 -3 61 -7 85 -10 248 -31 575 -14 788 40 306 79 507
203 826 509 125 120 158 164 202 269 58 142 61 258 12 540 -6 33 -13 67 -16
77 -3 10 -8 28 -10 39 -3 12 -7 29 -9 39 -81 343 -96 436 -97 572 0 206 42
309 227 547 201 258 277 491 269 828 -7 344 -110 638 -321 910 -201 261 -495
426 -779 439 -78 3 -132 -8 -238 -53 -225 -93 -417 -40 -697 193 -47 39 -90
75 -96 81 -6 6 -35 31 -64 56 -29 24 -58 49 -64 54 -37 35 -162 130 -229 175
-150 100 -251 135 -412 143 -33 1 -71 1 -85 -1z"/>
<path d="M12517 9234 c-1 -1 -54 -5 -117 -8 -174 -9 -277 -20 -463 -46 -94
-14 -116 -17 -182 -30 -27 -5 -66 -12 -85 -15 -19 -3 -42 -8 -50 -10 -8 -2
-28 -7 -45 -9 -60 -11 -90 -17 -115 -26 -14 -4 -68 -18 -120 -30 -314 -73
-921 -278 -1080 -364 -32 -18 -90 -112 -90 -148 0 -23 5 -28 35 -34 36 -6 107
0 178 16 23 5 53 11 67 14 14 2 93 21 175 41 217 52 287 63 405 59 127 -4 237
-18 390 -49 14 -3 41 -7 60 -10 19 -3 46 -7 60 -10 14 -3 43 -7 65 -10 22 -3
47 -7 55 -10 8 -2 33 -6 55 -10 211 -30 501 -116 680 -201 290 -136 471 -355
498 -601 l5 -42 -61 -29 c-142 -67 -345 -250 -402 -361 -45 -89 -56 -224 -23
-286 41 -77 131 -142 298 -215 114 -50 155 -80 225 -162 22 -26 45 -54 52 -61
6 -8 27 -46 47 -85 128 -253 100 -572 -70 -798 -95 -127 -195 -179 -344 -178
-143 2 -241 70 -455 319 -38 44 -74 85 -80 91 -16 17 -199 216 -210 229 -162
184 -684 718 -840 860 -150 137 -413 335 -443 335 -6 0 -12 4 -14 9 -9 24
-458 235 -458 215 0 -3 -8 0 -18 5 -22 12 -151 39 -223 46 -30 4 -66 8 -81 10
-35 4 -36 -8 -7 -101 53 -173 165 -345 379 -584 60 -66 188 -205 231 -251 381
-398 523 -584 660 -864 43 -88 111 -216 150 -285 94 -163 216 -406 308 -615
12 -27 29 -63 36 -80 16 -33 57 -127 60 -135 1 -3 6 -16 12 -30 67 -158 153
-366 208 -500 350 -855 534 -1230 705 -1435 59 -72 192 -194 260 -241 150
-104 330 -187 491 -229 72 -19 359 -27 467 -12 115 15 311 99 427 182 138 99
296 284 376 439 40 79 43 82 78 82 47 1 237 14 276 19 17 2 53 7 80 10 94 10
144 18 210 30 521 102 895 308 1082 598 80 125 146 295 167 427 7 42 8 350 2
400 -3 19 -7 62 -11 95 -8 73 -23 145 -68 330 -44 175 -87 281 -149 365 -66
88 -324 326 -497 458 -131 99 -259 221 -308 293 -45 65 -63 127 -59 201 5 101
50 183 166 305 92 97 116 129 151 199 81 166 109 428 68 629 -45 219 -147 431
-310 647 -138 182 -351 392 -549 543 -302 229 -590 382 -943 501 -124 42 -157
52 -304 88 -158 39 -335 69 -473 82 -41 3 -78 8 -81 10 -16 9 -563 26 -572 18z"/>
<path d="M7388 7875 c-1 -2 -27 -6 -56 -9 -43 -5 -128 -21 -212 -41 -377 -87
-791 -280 -1210 -563 -470 -318 -783 -601 -1111 -1003 -243 -298 -439 -617
-582 -949 -111 -258 -198 -653 -199 -908 0 -79 8 -186 18 -237 3 -11 7 -35 10
-54 10 -57 12 -67 34 -148 28 -100 100 -282 146 -370 44 -83 169 -272 221
-333 77 -91 199 -212 267 -268 39 -31 77 -63 85 -70 35 -34 248 -166 346 -215
227 -115 490 -196 715 -222 88 -10 123 -22 189 -67 67 -45 183 -163 234 -237
17 -25 34 -48 37 -51 11 -8 86 -140 124 -220 35 -71 69 -151 268 -630 45 -107
104 -238 131 -290 27 -52 54 -105 61 -117 6 -13 14 -23 19 -23 4 0 7 -5 7 -12
0 -21 113 -162 191 -238 65 -64 343 -268 459 -337 285 -171 648 -264 1000
-257 80 2 161 5 180 8 82 12 98 15 165 30 98 23 93 21 181 51 134 46 340 156
438 235 166 132 259 240 382 440 97 159 198 246 649 567 378 269 473 343 611
474 284 271 426 516 471 814 9 56 8 387 -1 595 -7 178 -10 213 -21 310 -4 30
-9 71 -11 90 -2 19 -6 46 -9 60 -3 14 -8 42 -11 64 -3 21 -8 48 -10 60 -3 11
-7 32 -10 46 -97 475 -223 799 -500 1282 -71 124 -280 457 -294 468 -4 3 -21
28 -40 55 -34 51 -250 343 -281 380 -9 11 -63 76 -119 145 -124 152 -192 230
-360 415 -82 90 -605 609 -661 655 l-48 41 -15 -23 c-22 -34 -34 -116 -35
-248 -3 -165 20 -250 120 -455 65 -134 85 -169 188 -338 286 -472 350 -653
317 -902 -11 -84 -67 -224 -107 -266 -49 -51 -97 -59 -385 -64 -131 -2 -256
-7 -276 -9 -70 -9 -113 -45 -156 -131 -24 -46 -26 -60 -26 -190 0 -147 3 -187
29 -325 39 -211 1 -419 -108 -595 -51 -82 -182 -205 -271 -254 -122 -67 -219
-91 -346 -87 -164 6 -264 49 -381 167 -84 83 -159 232 -184 362 -3 10 -6 26
-9 35 -3 9 -8 37 -11 62 -4 24 -9 48 -11 52 -10 15 -12 234 -3 288 5 30 11 74
14 97 3 23 19 104 35 180 37 169 37 169 49 218 30 124 61 317 61 383 0 115
-38 158 -139 156 -49 -1 -196 -42 -226 -64 -19 -13 -130 -50 -199 -65 -38 -9
-105 -15 -152 -14 -298 6 -462 227 -462 620 1 119 6 162 34 299 50 233 160
445 313 600 84 85 157 135 264 183 171 75 286 155 440 306 175 170 253 355
198 464 -46 91 -174 143 -353 145 -53 0 -98 -1 -100 -3z"/>
</g>
</svg>
